<svg width="80" height="80" viewBox="0 0 80 80" fill="none" xmlns="http://www.w3.org/2000/svg">
<g clip-path="url(#clip0_540_22413)">
<path d="M80 0H0V80H80V0Z" fill="black"/>
<path d="M39.6905 32.2571C39.6905 34.9771 37.2154 36.6988 33.327 36.6988H21V20.4199H32.4446C36.333 20.4199 38.8081 22.0949 38.8081 24.6523C38.8081 26.4899 37.5051 28.0939 35.1627 28.2565C37.6378 28.4192 39.6923 29.7913 39.6923 32.2571H39.6905ZM26.3017 26.7928H31.5604C32.6652 26.7928 33.4597 26.4432 33.4597 25.4206C33.4597 24.398 32.6633 24.0728 31.5604 24.0728H26.3017V26.7928ZM34.1663 31.5598C34.1663 30.5129 33.4148 30.0942 32.1997 30.0942H26.3017V33.0479H32.1997C33.4148 33.0479 34.1663 32.6067 34.1663 31.5598Z" fill="white"/>
<path d="M41.2148 34.3724C41.2148 32.8843 42.4075 31.6973 44.1311 31.6973C45.8547 31.6973 47.0699 32.8825 47.0699 34.3724C47.0699 35.8623 45.8772 37.0475 44.1311 37.0475C42.3851 37.0475 41.2148 35.8848 41.2148 34.3724Z" fill="white"/>
<path d="M34.609 52.789L39.0488 55.2529C37.6561 57.7186 34.4089 59.5787 30.1242 59.5787C24.2692 59.5787 20.2051 56.4624 20.2051 50.9046C20.2051 45.3468 24.2711 42.2305 30.3243 42.2305C34.4108 42.2305 37.6374 44.1148 38.9853 46.532L34.523 48.9735C33.5733 47.4144 32.1152 46.6703 30.2588 46.6703C27.5201 46.6703 25.6638 48.2051 25.6638 50.9027C25.6638 53.6003 27.5201 55.1351 30.2588 55.1351C32.1152 55.1351 33.5957 54.4378 34.6108 52.7871L34.609 52.789Z" fill="white"/>
<path d="M53.6529 59.0445L49.8972 54.2532H46.2743V59.0445H40.9277V42.7656H51.9087C56.0401 42.7656 59.3098 44.6257 59.3098 48.5104C59.3098 51.1855 57.7637 52.9054 55.4438 53.7186L59.7958 59.0445H53.6548H53.6529ZM51.4657 50.4639C52.8584 50.4639 53.851 50.0451 53.851 48.6506C53.851 47.256 52.8565 46.8372 51.4657 46.8372H46.2743V50.4658H51.4657V50.4639Z" fill="white"/>
</g>
<defs>
<clipPath id="clip0_540_22413">
<rect width="80" height="80" rx="15" fill="white"/>
</clipPath>
</defs>
</svg>
