<svg width="32" height="32" viewBox="0 0 32 32" fill="none" xmlns="http://www.w3.org/2000/svg">
<g opacity="">
<path d="M5.67534 22.1017C4.18645 19.5897 3.66565 16.6206 4.21072 13.7518C4.75579 10.8831 6.32925 8.31193 8.63569 6.52107C10.9421 4.7302 13.823 3.8428 16.7373 4.02544C19.6517 4.20808 22.3992 5.44822 24.464 7.51302C26.5288 9.57783 27.7689 12.3253 27.9516 15.2397C28.1342 18.154 27.2468 21.0349 25.4559 23.3413C23.6651 25.6478 21.0939 27.2212 18.2252 27.7663C15.3564 28.3113 12.3873 27.7906 9.87534 26.3017V26.3017L5.72534 27.4767C5.55531 27.5264 5.37503 27.5295 5.20341 27.4856C5.03178 27.4417 4.87513 27.3524 4.74986 27.2271C4.6246 27.1019 4.53534 26.9452 4.49144 26.7736C4.44753 26.602 4.45061 26.4217 4.50034 26.2517L5.67534 22.1017Z" stroke="currentColor" stroke-width="2" stroke-linecap="round" stroke-linejoin="round"/>
<path d="M13 16H19" stroke="currentColor" stroke-width="2" stroke-linecap="round" stroke-linejoin="round"/>
<path d="M16 13L16 19" stroke="currentColor" stroke-width="2" stroke-linecap="round" stroke-linejoin="round"/>
</g>
</svg>
