<svg width="29" height="29" viewBox="0 0 29 29" fill="none" xmlns="http://www.w3.org/2000/svg">
<rect x="1.25" y="1.28906" width="26.5" height="26.5" rx="9.75" fill="black" stroke="white" stroke-width="1.5"/>
<path d="M16.2979 18.793C15.7419 19.1348 15.0583 19.3057 14.2471 19.3057C12.9118 19.3057 11.818 18.8431 10.9658 17.918C10.0771 16.9883 9.63281 15.7168 9.63281 14.1035C9.63281 12.472 10.0817 11.1641 10.9795 10.1797C11.8773 9.19531 13.0645 8.70312 14.541 8.70312C15.8216 8.70312 16.8493 9.02897 17.624 9.68066C18.4033 10.3278 18.8499 11.1367 18.9639 12.1074H16.8926C16.7331 11.4193 16.3434 10.9385 15.7236 10.665C15.3773 10.5146 14.9922 10.4395 14.5684 10.4395C13.7572 10.4395 13.0895 10.7471 12.5654 11.3623C12.0459 11.973 11.7861 12.8936 11.7861 14.124C11.7861 15.3636 12.0687 16.2409 12.6338 16.7559C13.1989 17.2708 13.8415 17.5283 14.5615 17.5283C15.2679 17.5283 15.8467 17.3255 16.2979 16.9199C16.749 16.5098 17.027 15.9743 17.1318 15.3135H14.8008V13.6318H18.998V19.0391H17.6035L17.3916 17.7812C16.986 18.2598 16.6214 18.597 16.2979 18.793Z" fill="white"/>
</svg>
