<svg width="29" height="29" viewBox="0 0 29 29" fill="none" xmlns="http://www.w3.org/2000/svg">
<rect x="1.25" y="1.28906" width="26.5" height="26.5" rx="9.75" fill="#FF007A" stroke="white" stroke-width="1.5"/>
<path d="M15.1084 19.0391H10.542V8.96289H15.4365C16.6715 8.98112 17.5465 9.33887 18.0615 10.0361C18.3714 10.4645 18.5264 10.9772 18.5264 11.5742C18.5264 12.1895 18.3714 12.6839 18.0615 13.0576C17.8883 13.2673 17.6331 13.4587 17.2959 13.6318C17.8109 13.8187 18.1982 14.1149 18.458 14.5205C18.7223 14.9261 18.8545 15.4183 18.8545 15.9971C18.8545 16.5941 18.7041 17.1296 18.4033 17.6035C18.2119 17.918 17.9727 18.1823 17.6855 18.3965C17.362 18.6426 16.9792 18.8112 16.5371 18.9023C16.0996 18.9935 15.6234 19.0391 15.1084 19.0391ZM15.0605 14.6025H12.5518V17.2891H15.0264C15.4684 17.2891 15.8125 17.2298 16.0586 17.1113C16.5052 16.8926 16.7285 16.4733 16.7285 15.8535C16.7285 15.3294 16.512 14.9694 16.0791 14.7734C15.8376 14.6641 15.498 14.6071 15.0605 14.6025ZM16.1064 12.6816C16.3799 12.5176 16.5166 12.2236 16.5166 11.7998C16.5166 11.3304 16.3343 11.0205 15.9697 10.8701C15.6553 10.7653 15.2542 10.7129 14.7666 10.7129H12.5518V12.9346H15.0264C15.4684 12.9346 15.8285 12.8503 16.1064 12.6816Z" fill="white"/>
</svg>
