<svg width="29" height="28" viewBox="0 0 29 28" fill="none" xmlns="http://www.w3.org/2000/svg">
<rect x="1.25" y="0.75" width="26.5" height="26.5" rx="9.75" fill="#FFD702" stroke="white" stroke-width="1.5"/>
<path d="M15.1084 18.5H10.542V8.42383H15.4365C16.6715 8.44206 17.5465 8.7998 18.0615 9.49707C18.3714 9.92546 18.5264 10.4382 18.5264 11.0352C18.5264 11.6504 18.3714 12.1449 18.0615 12.5186C17.8883 12.7282 17.6331 12.9196 17.2959 13.0928C17.8109 13.2796 18.1982 13.5758 18.458 13.9814C18.7223 14.387 18.8545 14.8792 18.8545 15.458C18.8545 16.055 18.7041 16.5905 18.4033 17.0645C18.2119 17.3789 17.9727 17.6432 17.6855 17.8574C17.362 18.1035 16.9792 18.2721 16.5371 18.3633C16.0996 18.4544 15.6234 18.5 15.1084 18.5ZM15.0605 14.0635H12.5518V16.75H15.0264C15.4684 16.75 15.8125 16.6908 16.0586 16.5723C16.5052 16.3535 16.7285 15.9342 16.7285 15.3145C16.7285 14.7904 16.512 14.4303 16.0791 14.2344C15.8376 14.125 15.498 14.068 15.0605 14.0635ZM16.1064 12.1426C16.3799 11.9785 16.5166 11.6846 16.5166 11.2607C16.5166 10.7913 16.3343 10.4814 15.9697 10.3311C15.6553 10.2262 15.2542 10.1738 14.7666 10.1738H12.5518V12.3955H15.0264C15.4684 12.3955 15.8285 12.3112 16.1064 12.1426Z" fill="white"/>
</svg>
