<svg width="30" height="30" viewBox="0 0 30 30" fill="none" xmlns="http://www.w3.org/2000/svg">
<g opacity="0.3">
<path d="M14.9974 18.3346C16.8383 18.3346 18.3307 16.8423 18.3307 15.0013C18.3307 13.1604 16.8383 11.668 14.9974 11.668C13.1564 11.668 11.6641 13.1604 11.6641 15.0013C11.6641 16.8423 13.1564 18.3346 14.9974 18.3346Z" stroke="black" stroke-linecap="round" stroke-linejoin="round"/>
<path d="M18.3307 11.6675V15.8341C18.3307 16.4972 18.5941 17.133 19.063 17.6019C19.5318 18.0707 20.1677 18.3341 20.8307 18.3341C21.4938 18.3341 22.1297 18.0707 22.5985 17.6019C23.0673 17.133 23.3307 16.4972 23.3307 15.8341V15.0008C23.3306 13.12 22.6943 11.2945 21.5251 9.82123C20.356 8.34794 18.7229 7.31347 16.8913 6.88603C15.0597 6.45859 13.1373 6.66332 11.4369 7.46692C9.73637 8.27053 8.35773 9.62575 7.52512 11.3122C6.6925 12.9987 6.45488 14.9172 6.85088 16.7559C7.24688 18.5945 8.25322 20.2451 9.70626 21.4393C11.1593 22.6335 12.9736 23.3011 14.8541 23.3334C16.7347 23.3657 18.5708 22.761 20.0641 21.6175" stroke="black" stroke-linecap="round" stroke-linejoin="round"/>
</g>
</svg>
