<svg width="20" height="20" viewBox="0 0 20 20" fill="none" xmlns="http://www.w3.org/2000/svg">
<g clip-path="url(#clip0_2256_30968)">
<path d="M9.9974 13.3346C11.8383 13.3346 13.3307 11.8423 13.3307 10.0013C13.3307 8.16035 11.8383 6.66797 9.9974 6.66797C8.15645 6.66797 6.66406 8.16035 6.66406 10.0013C6.66406 11.8423 8.15645 13.3346 9.9974 13.3346Z" stroke="#FF007A" stroke-width="1.5" stroke-linecap="round" stroke-linejoin="round"/>
<path d="M13.3307 6.66745V10.8341C13.3307 11.4972 13.5941 12.133 14.063 12.6019C14.5318 13.0707 15.1677 13.3341 15.8307 13.3341C16.4938 13.3341 17.1297 13.0707 17.5985 12.6019C18.0673 12.133 18.3307 11.4972 18.3307 10.8341V10.0008C18.3306 8.11998 17.6943 6.29452 16.5251 4.82123C15.356 3.34794 13.7229 2.31347 11.8913 1.88603C10.0597 1.45859 8.13735 1.66332 6.43686 2.46692C4.73637 3.27053 3.35773 4.62575 2.52512 6.31222C1.6925 7.99869 1.45488 9.91723 1.85088 11.7559C2.24688 13.5945 3.25322 15.2451 4.70626 16.4393C6.15931 17.6335 7.9736 18.3011 9.85413 18.3334C11.7347 18.3657 13.5708 17.761 15.0641 16.6175" stroke="#FF007A" stroke-width="1.5" stroke-linecap="round" stroke-linejoin="round"/>
</g>
<defs>
<clipPath id="clip0_2256_30968">
<rect width="20" height="20" fill="white"/>
</clipPath>
</defs>
</svg>
