<svg width="26" height="26" viewBox="0 0 26 26" fill="none" xmlns="http://www.w3.org/2000/svg">
<path d="M5.7069 10.5626C5.70555 9.59937 5.89478 8.64538 6.26369 7.75559C6.63261 6.86579 7.17392 6.05778 7.85645 5.37808C8.53898 4.69839 9.34924 4.16044 10.2406 3.79523C11.1319 3.43002 12.0866 3.24475 13.0499 3.25011C17.0717 3.28058 20.2913 6.62199 20.2913 10.654V11.3751C20.2913 15.0111 21.053 17.1236 21.7233 18.2814C21.7945 18.4047 21.832 18.5445 21.8322 18.6869C21.8323 18.8293 21.795 18.9692 21.724 19.0926C21.6531 19.2161 21.5509 19.3187 21.4278 19.3902C21.3047 19.4617 21.1649 19.4996 21.0225 19.5001H4.97565C4.83327 19.4996 4.69352 19.4617 4.57041 19.3902C4.44729 19.3187 4.34513 19.2161 4.27415 19.0926C4.20318 18.9692 4.16589 18.8293 4.16602 18.6869C4.16614 18.5445 4.20368 18.4047 4.27487 18.2814C4.94519 17.1236 5.7069 15.0111 5.7069 11.3751V10.5626Z" stroke="black" stroke-width="2" stroke-linecap="round" stroke-linejoin="round"/>
<path d="M9.75 19.5V20.3125C9.75 21.1745 10.0924 22.0011 10.7019 22.6106C11.3114 23.2201 12.138 23.5625 13 23.5625C13.862 23.5625 14.6886 23.2201 15.2981 22.6106C15.9076 22.0011 16.25 21.1745 16.25 20.3125V19.5" stroke="black" stroke-width="2" stroke-linecap="round" stroke-linejoin="round"/>
</svg>
