<svg width="20" height="20" viewBox="0 0 20 20" fill="none" xmlns="http://www.w3.org/2000/svg">
<path d="M3.54709 13.8279C2.61653 12.2579 2.29103 10.4023 2.6317 8.60931C2.97237 6.81633 3.95578 5.20936 5.39731 4.09007C6.83883 2.97078 8.63934 2.41615 10.4608 2.5303C12.2823 2.64446 13.9995 3.41954 15.29 4.71004C16.5805 6.00055 17.3556 7.71773 17.4697 9.53921C17.5839 11.3607 17.0292 13.1612 15.91 14.6027C14.7907 16.0442 13.1837 17.0277 11.3907 17.3683C9.59774 17.709 7.74208 17.3835 6.17209 16.4529L3.57834 17.1873C3.47207 17.2184 3.3594 17.2203 3.25213 17.1929C3.14487 17.1654 3.04696 17.1097 2.96866 17.0314C2.89037 16.9531 2.83459 16.8552 2.80715 16.7479C2.77971 16.6406 2.78163 16.528 2.81271 16.4217L3.54709 13.8279Z" fill="white" stroke="#FF007A" stroke-width="1.5" stroke-linecap="round" stroke-linejoin="round"/>
<path d="M10 10.9375C10.5178 10.9375 10.9375 10.5178 10.9375 10C10.9375 9.48223 10.5178 9.0625 10 9.0625C9.48223 9.0625 9.0625 9.48223 9.0625 10C9.0625 10.5178 9.48223 10.9375 10 10.9375Z" fill="#FF007A"/>
<path d="M6.25 10.9375C6.76777 10.9375 7.1875 10.5178 7.1875 10C7.1875 9.48223 6.76777 9.0625 6.25 9.0625C5.73223 9.0625 5.3125 9.48223 5.3125 10C5.3125 10.5178 5.73223 10.9375 6.25 10.9375Z" fill="#FF007A"/>
<path d="M13.75 10.9375C14.2678 10.9375 14.6875 10.5178 14.6875 10C14.6875 9.48223 14.2678 9.0625 13.75 9.0625C13.2322 9.0625 12.8125 9.48223 12.8125 10C12.8125 10.5178 13.2322 10.9375 13.75 10.9375Z" fill="#FF007A"/>
</svg>
