<svg width="22" height="22" viewBox="0 0 22 22" fill="none" xmlns="http://www.w3.org/2000/svg">
<path d="M3.90179 15.2111C2.87818 13.4841 2.52013 11.4429 2.89487 9.47063C3.26961 7.49836 4.35136 5.73069 5.93704 4.49947C7.52272 3.26825 9.50328 2.65816 11.5069 2.78372C13.5105 2.90929 15.3994 3.76188 16.819 5.18144C18.2385 6.601 19.0911 8.48989 19.2167 10.4935C19.3423 12.4971 18.7322 14.4777 17.501 16.0634C16.2697 17.6491 14.5021 18.7308 12.5298 19.1055C10.5575 19.4803 8.51629 19.1222 6.78929 18.0986V18.0986L3.93617 18.9064C3.81928 18.9406 3.69534 18.9427 3.57734 18.9126C3.45935 18.8824 3.35165 18.821 3.26553 18.7349C3.17941 18.6488 3.11804 18.5411 3.08786 18.4231C3.05768 18.3051 3.05979 18.1811 3.09398 18.0642L3.90179 15.2111Z" stroke="black" stroke-width="1.5" stroke-linecap="round" stroke-linejoin="round"/>
<path d="M11 12.0312C11.5695 12.0312 12.0312 11.5695 12.0312 11C12.0312 10.4305 11.5695 9.96875 11 9.96875C10.4305 9.96875 9.96875 10.4305 9.96875 11C9.96875 11.5695 10.4305 12.0312 11 12.0312Z" fill="black"/>
<path d="M6.875 12.0312C7.44454 12.0312 7.90625 11.5695 7.90625 11C7.90625 10.4305 7.44454 9.96875 6.875 9.96875C6.30546 9.96875 5.84375 10.4305 5.84375 11C5.84375 11.5695 6.30546 12.0312 6.875 12.0312Z" fill="black"/>
<path d="M15.125 12.0312C15.6945 12.0312 16.1562 11.5695 16.1562 11C16.1562 10.4305 15.6945 9.96875 15.125 9.96875C14.5555 9.96875 14.0938 10.4305 14.0938 11C14.0938 11.5695 14.5555 12.0312 15.125 12.0312Z" fill="black"/>
</svg>
