<svg width="116" height="116" viewBox="0 0 116 116" fill="none" xmlns="http://www.w3.org/2000/svg">
<g clip-path="url(#clip0_1_2)">
<rect width="116" height="116" rx="15" fill="white"/>
<path d="M65.2889 67.1943C70.022 62.1987 77.978 62.1987 82.7111 67.1943L137.95 125.497C145.196 133.145 139.774 145.75 129.238 145.75H18.7616C8.22612 145.75 2.80446 133.145 10.0505 125.497L65.2889 67.1943Z" fill="#E9E6E2"/>
<path d="M18.1826 58.2607C24.0853 52.1161 33.9147 52.1161 39.8174 58.2607L90.3445 110.858C99.5022 120.391 92.746 136.25 79.5272 136.25H-21.5272C-34.7461 136.25 -41.5022 120.391 -32.3446 110.858L18.1826 58.2607Z" fill="#E9E6E2"/>
<circle cx="85.5" cy="34.5" r="13.5" fill="#E9E6E2"/>
</g>
<defs>
<clipPath id="clip0_1_2">
<rect width="116" height="116" rx="15" fill="white"/>
</clipPath>
</defs>
</svg>
