<svg width="116" height="116" viewBox="0 0 116 116" fill="none" xmlns="http://www.w3.org/2000/svg">
<path d="M106 0H10C4.47715 0 0 4.47715 0 10V106C0 111.523 4.47715 116 10 116H106C111.523 116 116 111.523 116 106V10C116 4.47715 111.523 0 106 0Z" fill="currentColor"/>
<path d="M58 74C71.8071 74 83 62.8071 83 49C83 35.1929 71.8071 24 58 24C44.1929 24 33 35.1929 33 49C33 62.8071 44.1929 74 58 74Z" fill="#D9D9D9"/>
<path d="M58 208C84.5097 208 106 178.899 106 143C106 107.101 84.5097 78 58 78C31.4903 78 10 107.101 10 143C10 178.899 31.4903 208 58 208Z" fill="#D9D9D9"/>
<path d="M48 47C49.6569 47 51 45.433 51 43.5C51 41.567 49.6569 40 48 40C46.3431 40 45 41.567 45 43.5C45 45.433 46.3431 47 48 47Z" fill="white"/>
<path d="M68 47C69.6569 47 71 45.433 71 43.5C71 41.567 69.6569 40 68 40C66.3431 40 65 41.567 65 43.5C65 45.433 66.3431 47 68 47Z" fill="white"/>
<path d="M65 53.1818C65 55.2905 61.866 57.5 58 57.5C54.134 57.5 51 55.2905 51 53.1818C51 51.0731 54.134 51 58 51C61.866 51 65 51.0731 65 53.1818Z" fill="white"/>
</svg>
