<svg width="32" height="32" viewBox="0 0 32 32" fill="none" xmlns="http://www.w3.org/2000/svg">
<g opacity="">
<path d="M11.7535 7.67444C11.4547 7.10309 11.3881 6.43835 11.5678 5.81908C11.7474 5.19981 12.1594 4.6739 12.7176 4.35121C13.2759 4.02852 13.9372 3.93401 14.5635 4.08741C15.1898 4.24082 15.7326 4.63028 16.0785 5.17444L19.8285 11.6619" stroke="currentColor" stroke-width="2" stroke-linecap="round" stroke-linejoin="round"/>
<path d="M8.42542 11.8987L6.42542 8.43616C6.12654 7.86481 6.05997 7.20007 6.23963 6.5808C6.41928 5.96153 6.83127 5.43562 7.38952 5.11293C7.94777 4.79024 8.60912 4.69573 9.23541 4.84913C9.8617 5.00254 10.4045 5.392 10.7504 5.93616L15.0004 13.2987" stroke="currentColor" stroke-width="2" stroke-linecap="round" stroke-linejoin="round"/>
<path d="M19.2469 20.6634C18.9176 20.0957 18.7035 19.4685 18.617 18.8179C18.5304 18.1673 18.5732 17.5061 18.7427 16.872C18.9122 16.238 19.2053 15.6436 19.605 15.123C20.0047 14.6025 20.5032 14.1659 21.0719 13.8384L19.8219 11.6634C19.4904 11.0882 19.401 10.4048 19.5733 9.7637C19.7456 9.12256 20.1655 8.57613 20.7407 8.24461C21.3159 7.91309 21.9992 7.82364 22.6403 7.99593C23.2815 8.16823 23.8279 8.58817 24.1594 9.16336L26.6594 13.5009C27.9855 15.7983 28.3446 18.5284 27.6578 21.0906C26.9709 23.6529 25.2944 25.8373 22.9969 27.1634C20.6995 28.4894 17.9694 28.8486 15.4072 28.1617C12.8449 27.4749 10.6605 25.7983 9.33444 23.5009L4.08444 14.4009C3.92029 14.1161 3.81384 13.8017 3.77118 13.4758C3.72851 13.1498 3.75046 12.8187 3.83577 12.5012C4.00807 11.8601 4.428 11.3136 5.00319 10.9821C5.57838 10.6506 6.26171 10.5611 6.90285 10.7334C7.54399 10.9057 8.09042 11.3257 8.42194 11.9009L11.1719 16.6634" stroke="currentColor" stroke-width="2" stroke-linecap="round" stroke-linejoin="round"/>
<path d="M10.1375 30C8.43899 28.8285 7.02507 27.2907 6 25.5" stroke="currentColor" stroke-width="2" stroke-linecap="round" stroke-linejoin="round"/>
<path d="M22 3.87502C23.141 3.87193 24.2626 4.17101 25.2506 4.74185C26.2386 5.31269 27.0578 6.13494 27.625 7.12502" stroke="currentColor" stroke-width="2" stroke-linecap="round" stroke-linejoin="round"/>
</g>
</svg>
