<svg width="14" height="14" viewBox="0 0 14 14" fill="none" xmlns="http://www.w3.org/2000/svg">
<g opacity="0.3">
<path d="M11.375 2.1875H2.625C2.38338 2.1875 2.1875 2.38338 2.1875 2.625V11.375C2.1875 11.6166 2.38338 11.8125 2.625 11.8125H11.375C11.6166 11.8125 11.8125 11.6166 11.8125 11.375V2.625C11.8125 2.38338 11.6166 2.1875 11.375 2.1875Z" stroke="black" stroke-linecap="round" stroke-linejoin="round"/>
<path d="M11.8125 8.74995L9.49922 6.43667C9.45851 6.39533 9.40999 6.36251 9.35647 6.3401C9.30295 6.31769 9.24552 6.30615 9.1875 6.30615C9.12948 6.30615 9.07205 6.31769 9.01853 6.3401C8.96501 6.36251 8.91649 6.39533 8.87578 6.43667L6.43672 8.87573C6.39601 8.91707 6.34749 8.9499 6.29397 8.97231C6.24045 8.99471 6.18302 9.00625 6.125 9.00625C6.06698 9.00625 6.00955 8.99471 5.95603 8.97231C5.90251 8.9499 5.85399 8.91707 5.81328 8.87573L4.68672 7.74917C4.64601 7.70783 4.59749 7.67501 4.54397 7.6526C4.49045 7.63019 4.43302 7.61865 4.375 7.61865C4.31698 7.61865 4.25955 7.63019 4.20603 7.6526C4.15251 7.67501 4.10399 7.70783 4.06328 7.74917L2.1875 9.62495" stroke="black" stroke-linecap="round" stroke-linejoin="round"/>
<path d="M5.46875 5.6875C5.83119 5.6875 6.125 5.39369 6.125 5.03125C6.125 4.66881 5.83119 4.375 5.46875 4.375C5.10631 4.375 4.8125 4.66881 4.8125 5.03125C4.8125 5.39369 5.10631 5.6875 5.46875 5.6875Z" fill="black"/>
</g>
</svg>
