<svg width="17" height="17" viewBox="0 0 17 17" fill="none" xmlns="http://www.w3.org/2000/svg">
<g opacity="0.3">
<path d="M6.05078 10.7853L10.2883 6.5415" stroke="black" stroke-linecap="round" stroke-linejoin="round"/>
<path d="M9.23125 11.8478L7.4625 13.6165C7.18385 13.8952 6.85305 14.1162 6.48898 14.267C6.12491 14.4178 5.7347 14.4954 5.34063 14.4954C4.54477 14.4954 3.78151 14.1793 3.21875 13.6165C2.656 13.0537 2.33984 12.2905 2.33984 11.4946C2.33984 10.6988 2.656 9.93551 3.21875 9.37275L4.9875 7.604" stroke="black" stroke-linecap="round" stroke-linejoin="round"/>
<path d="M11.3492 9.72881L13.118 7.96006C13.6807 7.39731 13.9969 6.63404 13.9969 5.83819C13.9969 5.04233 13.6807 4.27907 13.118 3.71631C12.5552 3.15356 11.792 2.8374 10.9961 2.8374C10.2002 2.8374 9.43698 3.15356 8.87422 3.71631L7.10547 5.48506" stroke="black" stroke-linecap="round" stroke-linejoin="round"/>
</g>
</svg>
