<svg width="20" height="20" viewBox="0 0 20 20" fill="none" xmlns="http://www.w3.org/2000/svg">
<path d="M7.35156 12.6484L12.6484 7.34375" stroke="#FF007A" stroke-width="1.5" stroke-linecap="round" stroke-linejoin="round"/>
<path d="M11.3291 13.9766L9.11817 16.1875C8.76986 16.5358 8.35635 16.8121 7.90126 17.0006C7.44617 17.1891 6.95841 17.2861 6.46582 17.2861C5.471 17.2861 4.51693 16.8909 3.81348 16.1875C3.11004 15.4841 2.71484 14.53 2.71484 13.5352C2.71484 12.5403 3.11004 11.5863 3.81348 10.8828L6.02442 8.67188" stroke="#FF007A" stroke-width="1.5" stroke-linecap="round" stroke-linejoin="round"/>
<path d="M13.9766 11.3281L16.1875 9.11719C16.8909 8.41375 17.2861 7.45967 17.2861 6.46485C17.2861 5.47003 16.8909 4.51595 16.1875 3.8125C15.4841 3.10906 14.53 2.71387 13.5352 2.71387C12.5403 2.71387 11.5863 3.10906 10.8828 3.8125L8.67188 6.02344" stroke="#FF007A" stroke-width="1.5" stroke-linecap="round" stroke-linejoin="round"/>
</svg>
