<svg width="20" height="18" viewBox="0 0 20 18" fill="none" xmlns="http://www.w3.org/2000/svg">
    <g opacity="0.3">
<path d="M15.1562 11.866C16.0679 11.866 16.9423 11.5039 17.5869 10.8592C18.2316 10.2146 18.5938 9.34022 18.5938 8.42854C18.5938 7.51686 18.2316 6.64251 17.5869 5.99786C16.9423 5.3532 16.0679 4.99104 15.1562 4.99104H11.7188C11.7188 4.99104 7.03516 4.99104 2.53203 1.21838C2.43187 1.1355 2.31026 1.08271 2.18132 1.06615C2.05237 1.04959 1.92137 1.06992 1.80352 1.1248C1.68566 1.17968 1.58578 1.26685 1.51547 1.3762C1.44515 1.48555 1.40728 1.6126 1.40625 1.7426V15.1145C1.40728 15.2445 1.44515 15.3715 1.51547 15.4809C1.58578 15.5902 1.68566 15.6774 1.80352 15.7323C1.92137 15.7871 2.05237 15.8075 2.18132 15.7909C2.31026 15.7744 2.43187 15.7216 2.53203 15.6387C7.03516 11.866 11.7188 11.866 11.7188 11.866H15.1562Z" stroke="black" stroke-width="1" stroke-linecap="round" stroke-linejoin="round"/>
<path d="M11.7188 4.99023V15.6207C11.7177 15.735 11.7455 15.8476 11.7996 15.9483C11.8537 16.0489 11.9323 16.1343 12.0282 16.1965L12.9735 16.8238C13.065 16.885 13.17 16.9232 13.2794 16.9354C13.3889 16.9475 13.4996 16.9332 13.6024 16.8936C13.7051 16.854 13.7969 16.7903 13.8699 16.7079C13.9429 16.6255 13.995 16.5267 14.0219 16.4199L15.1563 11.8652" stroke="black" stroke-width="1" stroke-linecap="round" stroke-linejoin="round"/>
    </g>
</svg>
