<svg width="14" height="14" viewBox="0 0 14 14" fill="none" xmlns="http://www.w3.org/2000/svg">
<g opacity="0.3">
<path d="M9.84375 10.9375C10.6894 10.9375 11.375 10.2519 11.375 9.40625C11.375 8.56056 10.6894 7.875 9.84375 7.875C8.99806 7.875 8.3125 8.56056 8.3125 9.40625C8.3125 10.2519 8.99806 10.9375 9.84375 10.9375Z" stroke="black" stroke-linecap="round" stroke-linejoin="round"/>
<path d="M2.84375 12.6875C3.68944 12.6875 4.375 12.0019 4.375 11.1562C4.375 10.3106 3.68944 9.625 2.84375 9.625C1.99806 9.625 1.3125 10.3106 1.3125 11.1562C1.3125 12.0019 1.99806 12.6875 2.84375 12.6875Z" stroke="black" stroke-linecap="round" stroke-linejoin="round"/>
<path d="M4.375 11.1562V3.5L11.375 1.75V9.40625" stroke="black" stroke-linecap="round" stroke-linejoin="round"/>
</g>
</svg>
