<svg width="22" height="23" viewBox="0 0 22 23" fill="none" xmlns="http://www.w3.org/2000/svg">
<g opacity="">
<path d="M7.5625 14.9375L4.125 18.375" stroke="currentColor" stroke-width="1.5" stroke-linecap="round" stroke-linejoin="round"/>
<path d="M13.2605 3.05227L7.90659 8.40617C7.90659 8.40617 5.52612 7.21164 2.97377 9.27414C2.89867 9.33492 2.83722 9.41084 2.79343 9.49696C2.74964 9.58308 2.72449 9.67747 2.71962 9.77396C2.71476 9.87045 2.73028 9.96688 2.76519 10.057C2.8001 10.1471 2.8536 10.2288 2.92221 10.2968L12.1863 19.5609C12.2556 19.6314 12.3394 19.6862 12.4318 19.7214C12.5243 19.7566 12.6232 19.7715 12.722 19.765C12.8207 19.7584 12.9168 19.7307 13.0038 19.6836C13.0908 19.6365 13.1667 19.5712 13.2261 19.4921C13.948 18.5382 15.0824 16.5616 14.0941 14.5937L19.448 9.23977C19.513 9.1758 19.5645 9.09954 19.5997 9.01545C19.635 8.93135 19.6531 8.84109 19.6531 8.74992C19.6531 8.65875 19.635 8.5685 19.5997 8.4844C19.5645 8.4003 19.513 8.32405 19.448 8.26008L14.2402 3.05227C14.1762 2.98731 14.1 2.93572 14.0159 2.90051C13.9318 2.8653 13.8415 2.84717 13.7503 2.84717C13.6592 2.84717 13.5689 2.8653 13.4848 2.90051C13.4007 2.93572 13.3245 2.98731 13.2605 3.05227Z" fill="currentColor" stroke="currentColor" stroke-width="1.5" stroke-linecap="round" stroke-linejoin="round"/>
</g>
</svg>
