<svg width="14" height="14" viewBox="0 0 14 14" fill="none" xmlns="http://www.w3.org/2000/svg">
<g opacity="0.3">
<path d="M12.4742 6.62813L4.60469 1.81563C4.53844 1.77477 4.46249 1.75232 4.38467 1.7506C4.30686 1.74887 4.22999 1.76795 4.162 1.80584C4.09401 1.84374 4.03736 1.89908 3.9979 1.96617C3.95844 2.03327 3.93759 2.10967 3.9375 2.18751V11.8125C3.93759 11.8903 3.95844 11.9667 3.9979 12.0338C4.03736 12.1009 4.09401 12.1563 4.162 12.1942C4.22999 12.2321 4.30686 12.2511 4.38467 12.2494C4.46249 12.2477 4.53844 12.2252 4.60469 12.1844L12.4742 7.37188C12.5388 7.33367 12.5924 7.27928 12.6296 7.21407C12.6668 7.14886 12.6863 7.07508 12.6863 7.00001C12.6863 6.92493 12.6668 6.85116 12.6296 6.78595C12.5924 6.72074 12.5388 6.66634 12.4742 6.62813V6.62813Z" stroke="black" stroke-linecap="round" stroke-linejoin="round"/>
</g>
</svg>
