<svg width="32" height="32" viewBox="0 0 32 32" fill="none" xmlns="http://www.w3.org/2000/svg">
<g opacity="">
<path d="M25 22V8.00003C25.0017 7.6056 24.9252 7.21475 24.775 6.85002C24.6248 6.4853 24.4039 6.15392 24.125 5.87502C23.8461 5.59611 23.5147 5.3752 23.15 5.22502C22.7853 5.07484 22.3944 4.99837 22 5.00003H5" stroke="currentColor" stroke-width="2" stroke-linecap="round" stroke-linejoin="round"/>
<path d="M13 13H21" stroke="currentColor" stroke-width="2" stroke-linecap="round" stroke-linejoin="round"/>
<path d="M13 17H21" stroke="currentColor" stroke-width="2" stroke-linecap="round" stroke-linejoin="round"/>
<path d="M2.7625 10.0001C2.43867 9.63753 2.20781 9.2017 2.08977 8.73011C1.97174 8.25853 1.97007 7.76533 2.08492 7.29296C2.19977 6.82059 2.42769 6.3832 2.74907 6.01845C3.07044 5.6537 3.47564 5.37252 3.92979 5.19909C4.38394 5.02567 4.87342 4.96521 5.35612 5.02292C5.83881 5.08063 6.30025 5.25477 6.70072 5.53036C7.10118 5.80595 7.42868 6.17473 7.65501 6.60496C7.88135 7.03519 7.99974 7.51398 8 8.00011V24.0001C8.00026 24.4862 8.11865 24.965 8.34499 25.3953C8.57132 25.8255 8.89882 26.1943 9.29928 26.4699C9.69975 26.7454 10.1612 26.9196 10.6439 26.9773C11.1266 27.035 11.6161 26.9745 12.0702 26.8011C12.5244 26.6277 12.9296 26.3465 13.2509 25.9818C13.5723 25.617 13.8002 25.1796 13.9151 24.7073C14.0299 24.2349 14.0283 23.7417 13.9102 23.2701C13.7922 22.7985 13.5613 22.3627 13.2375 22.0001H27.2375C27.6237 22.4319 27.8766 22.9662 27.9657 23.5385C28.0548 24.1109 27.9764 24.6968 27.7398 25.2255C27.5031 25.7542 27.1185 26.2031 26.6324 26.5181C26.1462 26.833 25.5792 27.0004 25 27.0001H11" stroke="currentColor" stroke-width="2" stroke-linecap="round" stroke-linejoin="round"/>
</g>
</svg>
