<svg width="18" height="14" viewBox="0 0 18 14" fill="none" xmlns="http://www.w3.org/2000/svg">
<path d="M6.40256 9.63129C8.58161 9.63129 10.3481 7.86481 10.3481 5.68576C10.3481 3.50671 8.58161 1.74023 6.40256 1.74023C4.2235 1.74023 2.45703 3.50671 2.45703 5.68576C2.45703 7.86481 4.2235 9.63129 6.40256 9.63129Z" stroke="currentColor" stroke-width="1.5" stroke-miterlimit="10"/>
<path d="M0.757812 12.2595C1.44911 11.4356 2.31246 10.7731 3.2872 10.3185C4.26194 9.86397 5.3244 9.62842 6.39991 9.62842C7.47543 9.62842 8.53789 9.86397 9.51263 10.3185C10.4874 10.7731 11.3507 11.4356 12.042 12.2595" stroke="currentColor" stroke-width="1.5" stroke-linecap="round" stroke-linejoin="round"/>
<path d="M14.8181 7.2617C15.7036 7.2617 16.4214 6.54389 16.4214 5.65844C16.4214 4.77298 15.7036 4.05518 14.8181 4.05518C13.9326 4.05518 13.2148 4.77298 13.2148 5.65844C13.2148 6.54389 13.9326 7.2617 14.8181 7.2617Z" stroke="currentColor" stroke-width="1.5" stroke-linecap="round" stroke-linejoin="round"/>
<path d="M14.8203 4.05547V2.85303" stroke="currentColor" stroke-width="1.5" stroke-linecap="round" stroke-linejoin="round"/>
<path d="M13.4266 4.85611L12.3945 4.25488" stroke="currentColor" stroke-width="1.5" stroke-linecap="round" stroke-linejoin="round"/>
<path d="M13.4266 6.45996L12.3945 7.06118" stroke="currentColor" stroke-width="1.5" stroke-linecap="round" stroke-linejoin="round"/>
<path d="M14.8203 7.2627V8.46514" stroke="currentColor" stroke-width="1.5" stroke-linecap="round" stroke-linejoin="round"/>
<path d="M16.2109 6.45996L17.243 7.06118" stroke="currentColor" stroke-width="1.5" stroke-linecap="round" stroke-linejoin="round"/>
<path d="M16.2109 4.85611L17.243 4.25488" stroke="currentColor" stroke-width="1.5" stroke-linecap="round" stroke-linejoin="round"/>
</svg>
