<svg width="41" height="40" viewBox="0 0 41 40" fill="none" xmlns="http://www.w3.org/2000/svg">
<path d="M20.5 35C28.7843 35 35.5 28.2843 35.5 20C35.5 11.7157 28.7843 5 20.5 5C12.2157 5 5.5 11.7157 5.5 20C5.5 28.2843 12.2157 35 20.5 35Z" fill="" stroke="grey" stroke-width="2" stroke-linecap="round" stroke-linejoin="round"/>
<path d="M14.875 18.75C15.9105 18.75 16.75 17.9105 16.75 16.875C16.75 15.8395 15.9105 15 14.875 15C13.8395 15 13 15.8395 13 16.875C13 17.9105 13.8395 18.75 14.875 18.75Z" fill="grey"/>
<path d="M24.25 16.875H28" stroke="grey" stroke-width="2" stroke-linecap="round" stroke-linejoin="round"/>
<path d="M27 23.75C26.3392 24.8884 25.391 25.8334 24.2503 26.4902C23.1095 27.147 21.8163 27.4927 20.5 27.4927C19.1837 27.4927 17.8905 27.147 16.7497 26.4902C15.609 25.8334 14.6608 24.8884 14 23.75" stroke="grey" stroke-width="2" stroke-linecap="round" stroke-linejoin="round"/>
</svg>
