<svg width="60" height="60" viewBox="0 0 60 60" fill="none" xmlns="http://www.w3.org/2000/svg">
<path d="M30 52.5C42.4264 52.5 52.5 42.4264 52.5 30C52.5 17.5736 42.4264 7.5 30 7.5C17.5736 7.5 7.5 17.5736 7.5 30C7.5 42.4264 17.5736 52.5 30 52.5Z" stroke="#F8899D" stroke-width="3" stroke-miterlimit="10"/>
<path d="M20.625 37.5H39.375" stroke="#F8899D" stroke-width="3" stroke-linecap="round" stroke-linejoin="round"/>
<path d="M21.5625 28.125C23.1158 28.125 24.375 26.8658 24.375 25.3125C24.375 23.7592 23.1158 22.5 21.5625 22.5C20.0092 22.5 18.75 23.7592 18.75 25.3125C18.75 26.8658 20.0092 28.125 21.5625 28.125Z" fill="#F8899D"/>
<path d="M38.4375 28.125C39.9908 28.125 41.25 26.8658 41.25 25.3125C41.25 23.7592 39.9908 22.5 38.4375 22.5C36.8842 22.5 35.625 23.7592 35.625 25.3125C35.625 26.8658 36.8842 28.125 38.4375 28.125Z" fill="#F8899D"/>
</svg>
